<svg width="26" height="26" viewBox="0 0 26 26" fill="none" xmlns="http://www.w3.org/2000/svg">
<path fill-rule="evenodd" clip-rule="evenodd" d="M22.75 3.25H3.25C2.35254 3.25 1.625 3.97754 1.625 4.875V21.125C1.625 22.0225 2.35254 22.75 3.25 22.75H22.75C23.6475 22.75 24.375 22.0225 24.375 21.125V4.875C24.375 3.97754 23.6475 3.25 22.75 3.25ZM3.25 1.625C1.45507 1.625 0 3.08007 0 4.875V21.125C0 22.9199 1.45507 24.375 3.25 24.375H22.75C24.5449 24.375 26 22.9199 26 21.125V4.875C26 3.08007 24.5449 1.625 22.75 1.625H3.25Z" fill="#282A35"/>
<path fill-rule="evenodd" clip-rule="evenodd" d="M24.375 9.75H1.625V8.125H24.375V9.75Z" fill="#282A35"/>
<path d="M4.875 5.6875C4.875 6.13623 4.51123 6.5 4.0625 6.5C3.61377 6.5 3.25 6.13623 3.25 5.6875C3.25 5.23877 3.61377 4.875 4.0625 4.875C4.51123 4.875 4.875 5.23877 4.875 5.6875Z" fill="#282A35"/>
<path d="M7.3125 5.6875C7.3125 6.13623 6.94873 6.5 6.5 6.5C6.05127 6.5 5.6875 6.13623 5.6875 5.6875C5.6875 5.23877 6.05127 4.875 6.5 4.875C6.94873 4.875 7.3125 5.23877 7.3125 5.6875Z" fill="#282A35"/>
<path d="M9.75 5.6875C9.75 6.13623 9.38623 6.5 8.9375 6.5C8.48877 6.5 8.125 6.13623 8.125 5.6875C8.125 5.23877 8.48877 4.875 8.9375 4.875C9.38623 4.875 9.75 5.23877 9.75 5.6875Z" fill="#282A35"/>
</svg>
